{"asset":{"version":"2.0","generator":"babylon.js glTF exporter for 3dsmax 2022 v20220210.4"},"scene":0,"scenes":[{"nodes":[0]}],"nodes":[{"mesh":0,"rotation":[0.0,-0.7151307,0.0,0.6989909],"name":"Box001"}],"meshes":[{"primitives":[{"attributes":{"POSITION":1,"NORMAL":2,"TEXCOORD_0":3},"indices":0}],"name":"Box001"}],"accessors":[{"bufferView":0,"componentType":5123,"count":288,"type":"SCALAR","name":"accessorIndices"},{"bufferView":1,"componentType":5126,"count":288,"max":[16.362051,26.5349255,14.6853857],"min":[-18.980257,3.54978871,-12.8196487],"type":"VEC3","name":"accessorPositions"},{"bufferView":1,"byteOffset":3456,"componentType":5126,"count":288,"type":"VEC3","name":"accessorNormals"},{"bufferView":2,"componentType":5126,"count":288,"type":"VEC2","name":"accessorUVs"}],"bufferViews":[{"buffer":0,"byteLength":576,"name":"bufferViewScalar"},{"buffer":0,"byteOffset":576,"byteLength":6912,"byteStride":12,"name":"bufferViewFloatVec3"},{"buffer":0,"byteOffset":7488,"byteLength":2304,"byteStride":8,"name":"bufferViewFloatVec2"}],"buffers":[{"uri":"rock_md.bin","byteLength":9792}]}