{"asset":{"version":"2.0","generator":"babylon.js glTF exporter for 3dsmax 2022 v20220210.4"},"scene":0,"scenes":[{"nodes":[0]}],"nodes":[{"mesh":0,"translation":[-68.96803,0.0,93.63594],"name":"Box005"}],"meshes":[{"primitives":[{"attributes":{"POSITION":1,"NORMAL":2,"TEXCOORD_0":3},"indices":0}],"name":"Box005"}],"accessors":[{"bufferView":0,"componentType":5123,"count":672,"type":"SCALAR","name":"accessorIndices"},{"bufferView":1,"componentType":5126,"count":672,"max":[21.8431282,52.6089745,37.07183],"min":[-22.9310665,3.384613,-35.2467155],"type":"VEC3","name":"accessorPositions"},{"bufferView":1,"byteOffset":8064,"componentType":5126,"count":672,"type":"VEC3","name":"accessorNormals"},{"bufferView":2,"componentType":5126,"count":672,"type":"VEC2","name":"accessorUVs"}],"bufferViews":[{"buffer":0,"byteLength":1344,"name":"bufferViewScalar"},{"buffer":0,"byteOffset":1344,"byteLength":16128,"byteStride":12,"name":"bufferViewFloatVec3"},{"buffer":0,"byteOffset":17472,"byteLength":5376,"byteStride":8,"name":"bufferViewFloatVec2"}],"buffers":[{"uri":"rock_lg.bin","byteLength":22848}]}