{"asset":{"version":"2.0","generator":"babylon.js glTF exporter for 3dsmax 2022 v20220210.4"},"scene":0,"scenes":[{"nodes":[0]}],"nodes":[{"mesh":0,"translation":[55.85537,0.0,0.0],"name":"Box003"}],"meshes":[{"primitives":[{"attributes":{"POSITION":1,"NORMAL":2,"TEXCOORD_0":3},"indices":0}],"name":"Box003"}],"accessors":[{"bufferView":0,"componentType":5123,"count":120,"type":"SCALAR","name":"accessorIndices"},{"bufferView":1,"componentType":5126,"count":120,"max":[6.47096968,11.6751251,7.091024],"min":[-7.436621,4.567194,-6.12537241],"type":"VEC3","name":"accessorPositions"},{"bufferView":1,"byteOffset":1440,"componentType":5126,"count":120,"type":"VEC3","name":"accessorNormals"},{"bufferView":2,"componentType":5126,"count":120,"type":"VEC2","name":"accessorUVs"}],"bufferViews":[{"buffer":0,"byteLength":240,"name":"bufferViewScalar"},{"buffer":0,"byteOffset":240,"byteLength":2880,"byteStride":12,"name":"bufferViewFloatVec3"},{"buffer":0,"byteOffset":3120,"byteLength":960,"byteStride":8,"name":"bufferViewFloatVec2"}],"buffers":[{"uri":"rock_sm.bin","byteLength":4080}]}